<?xml version="1.0" encoding="utf-8" standalone="no"?>
<!DOCTYPE svg PUBLIC "-//W3C//DTD SVG 1.1//EN"
  "http://www.w3.org/Graphics/SVG/1.1/DTD/svg11.dtd">
<svg xmlns:xlink="http://www.w3.org/1999/xlink" width="1440pt" height="360pt" viewBox="0 0 1440 360" xmlns="http://www.w3.org/2000/svg" version="1.1">
 <metadata>
  <rdf:RDF xmlns:dc="http://purl.org/dc/elements/1.1/" xmlns:cc="http://creativecommons.org/ns#" xmlns:rdf="http://www.w3.org/1999/02/22-rdf-syntax-ns#">
   <cc:Work>
    <dc:type rdf:resource="http://purl.org/dc/dcmitype/StillImage"/>
    <dc:date>2022-09-15T08:29:37.205708</dc:date>
    <dc:format>image/svg+xml</dc:format>
    <dc:creator>
     <cc:Agent>
      <dc:title>Matplotlib v3.5.3, https://matplotlib.org/</dc:title>
     </cc:Agent>
    </dc:creator>
   </cc:Work>
  </rdf:RDF>
 </metadata>
 <defs>
  <style type="text/css">*{stroke-linejoin: round; stroke-linecap: butt}</style>
 </defs>
 <g id="figure_1">
  <g id="patch_1">
   <path d="M 0 360 
L 1440 360 
L 1440 0 
L 0 0 
L 0 360 
z
" style="fill: none"/>
  </g>
  <g id="axes_1">
   <g id="patch_2">
    <path d="M 180 320.4 
L 1296 320.4 
L 1296 43.2 
L 180 43.2 
L 180 320.4 
z
" style="fill: none"/>
   </g>
   <g id="PathCollection_1">
    <defs>
     <path id="m55f435bc2c" d="M 0 3 
C 0.795609 3 1.55874 2.683901 2.12132 2.12132 
C 2.683901 1.55874 3 0.795609 3 0 
C 3 -0.795609 2.683901 -1.55874 2.12132 -2.12132 
C 1.55874 -2.683901 0.795609 -3 0 -3 
C -0.795609 -3 -1.55874 -2.683901 -2.12132 -2.12132 
C -2.683901 -1.55874 -3 -0.795609 -3 0 
C -3 0.795609 -2.683901 1.55874 -2.12132 2.12132 
C -1.55874 2.683901 -0.795609 3 0 3 
z
" style="stroke: #ff0000"/>
    </defs>
    <g clip-path="url(#pa5584be1e0)">
     <use xlink:href="#m55f435bc2c" x="265.956935" y="303.30921" style="fill: #ff0000; stroke: #ff0000"/>
     <use xlink:href="#m55f435bc2c" x="343.462191" y="303.299487" style="fill: #ff0000; stroke: #ff0000"/>
     <use xlink:href="#m55f435bc2c" x="420.967447" y="303.290366" style="fill: #ff0000; stroke: #ff0000"/>
     <use xlink:href="#m55f435bc2c" x="498.472703" y="303.277311" style="fill: #ff0000; stroke: #ff0000"/>
     <use xlink:href="#m55f435bc2c" x="575.977959" y="303.170967" style="fill: #ff0000; stroke: #ff0000"/>
    </g>
   </g>
   <g id="PathCollection_2">
    <g clip-path="url(#pa5584be1e0)">
     <use xlink:href="#m55f435bc2c" x="234.374093" y="324.047285" style="fill: #ff0000; stroke: #ff0000"/>
     <use xlink:href="#m55f435bc2c" x="312.84266" y="328.737195" style="fill: #ff0000; stroke: #ff0000"/>
     <use xlink:href="#m55f435bc2c" x="390.829572" y="331.669614" style="fill: #ff0000; stroke: #ff0000"/>
     <use xlink:href="#m55f435bc2c" x="465.651319" y="326.557492" style="fill: #ff0000; stroke: #ff0000"/>
     <use xlink:href="#m55f435bc2c" x="541.642801" y="346.514117" style="fill: #ff0000; stroke: #ff0000"/>
    </g>
   </g>
   <g id="PathCollection_3">
    <g clip-path="url(#pa5584be1e0)">
     <use xlink:href="#m55f435bc2c" x="246.621905" y="299.07695" style="fill: #ff0000; stroke: #ff0000"/>
     <use xlink:href="#m55f435bc2c" x="321.443652" y="297.303384" style="fill: #ff0000; stroke: #ff0000"/>
     <use xlink:href="#m55f435bc2c" x="397.710365" y="294.223894" style="fill: #ff0000; stroke: #ff0000"/>
     <use xlink:href="#m55f435bc2c" x="474.252311" y="287.319014" style="fill: #ff0000; stroke: #ff0000"/>
     <use xlink:href="#m55f435bc2c" x="548.730018" y="272.592881" style="fill: #ff0000; stroke: #ff0000"/>
    </g>
   </g>
   <g id="matplotlib.axis_1"/>
   <g id="matplotlib.axis_2">
    <g id="ytick_1">
     <g id="line2d_1">
      <path d="M 180 285.75 
L 1296 285.75 
" clip-path="url(#pa5584be1e0)" style="fill: none; stroke: #b0b0b0; stroke-width: 0.8; stroke-linecap: square"/>
     </g>
     <g id="line2d_2">
      <defs>
       <path id="ma31b5c8e7f" d="M 0 0 
L -3.5 0 
" style="stroke: #000000; stroke-width: 0.8"/>
      </defs>
      <g>
       <use xlink:href="#ma31b5c8e7f" x="170" y="285.75" style="stroke: #000000; stroke-width: 0.8"/>
      </g>
     </g>
     <g id="text_1">
      <!-- 60 -->
      <g transform="translate(136.3075 294.339375)scale(0.24 -0.24)">
       <defs>
        <path id="ArialMT-36" d="M 3184 3459 
L 2625 3416 
Q 2550 3747 2413 3897 
Q 2184 4138 1850 4138 
Q 1581 4138 1378 3988 
Q 1113 3794 959 3422 
Q 806 3050 800 2363 
Q 1003 2672 1297 2822 
Q 1591 2972 1913 2972 
Q 2475 2972 2870 2558 
Q 3266 2144 3266 1488 
Q 3266 1056 3080 686 
Q 2894 316 2569 119 
Q 2244 -78 1831 -78 
Q 1128 -78 684 439 
Q 241 956 241 2144 
Q 241 3472 731 4075 
Q 1159 4600 1884 4600 
Q 2425 4600 2770 4297 
Q 3116 3994 3184 3459 
z
M 888 1484 
Q 888 1194 1011 928 
Q 1134 663 1356 523 
Q 1578 384 1822 384 
Q 2178 384 2434 671 
Q 2691 959 2691 1453 
Q 2691 1928 2437 2201 
Q 2184 2475 1800 2475 
Q 1419 2475 1153 2201 
Q 888 1928 888 1484 
z
" transform="scale(0.015625)"/>
        <path id="ArialMT-30" d="M 266 2259 
Q 266 3072 433 3567 
Q 600 4063 929 4331 
Q 1259 4600 1759 4600 
Q 2128 4600 2406 4451 
Q 2684 4303 2865 4023 
Q 3047 3744 3150 3342 
Q 3253 2941 3253 2259 
Q 3253 1453 3087 958 
Q 2922 463 2592 192 
Q 2263 -78 1759 -78 
Q 1097 -78 719 397 
Q 266 969 266 2259 
z
M 844 2259 
Q 844 1131 1108 757 
Q 1372 384 1759 384 
Q 2147 384 2411 759 
Q 2675 1134 2675 2259 
Q 2675 3391 2411 3762 
Q 2147 4134 1753 4134 
Q 1366 4134 1134 3806 
Q 844 3388 844 2259 
z
" transform="scale(0.015625)"/>
       </defs>
       <use xlink:href="#ArialMT-36"/>
       <use xlink:href="#ArialMT-30" x="55.615234"/>
      </g>
     </g>
    </g>
    <g id="ytick_2">
     <g id="line2d_3">
      <path d="M 180 216.45 
L 1296 216.45 
" clip-path="url(#pa5584be1e0)" style="fill: none; stroke: #b0b0b0; stroke-width: 0.8; stroke-linecap: square"/>
     </g>
     <g id="line2d_4">
      <g>
       <use xlink:href="#ma31b5c8e7f" x="170" y="216.45" style="stroke: #000000; stroke-width: 0.8"/>
      </g>
     </g>
     <g id="text_2">
      <!-- 80 -->
      <g transform="translate(136.3075 225.039375)scale(0.24 -0.24)">
       <defs>
        <path id="ArialMT-38" d="M 1131 2484 
Q 781 2613 612 2850 
Q 444 3088 444 3419 
Q 444 3919 803 4259 
Q 1163 4600 1759 4600 
Q 2359 4600 2725 4251 
Q 3091 3903 3091 3403 
Q 3091 3084 2923 2848 
Q 2756 2613 2416 2484 
Q 2838 2347 3058 2040 
Q 3278 1734 3278 1309 
Q 3278 722 2862 322 
Q 2447 -78 1769 -78 
Q 1091 -78 675 323 
Q 259 725 259 1325 
Q 259 1772 486 2073 
Q 713 2375 1131 2484 
z
M 1019 3438 
Q 1019 3113 1228 2906 
Q 1438 2700 1772 2700 
Q 2097 2700 2305 2904 
Q 2513 3109 2513 3406 
Q 2513 3716 2298 3927 
Q 2084 4138 1766 4138 
Q 1444 4138 1231 3931 
Q 1019 3725 1019 3438 
z
M 838 1322 
Q 838 1081 952 856 
Q 1066 631 1291 507 
Q 1516 384 1775 384 
Q 2178 384 2440 643 
Q 2703 903 2703 1303 
Q 2703 1709 2433 1975 
Q 2163 2241 1756 2241 
Q 1359 2241 1098 1978 
Q 838 1716 838 1322 
z
" transform="scale(0.015625)"/>
       </defs>
       <use xlink:href="#ArialMT-38"/>
       <use xlink:href="#ArialMT-30" x="55.615234"/>
      </g>
     </g>
    </g>
    <g id="ytick_3">
     <g id="line2d_5">
      <path d="M 180 147.15 
L 1296 147.15 
" clip-path="url(#pa5584be1e0)" style="fill: none; stroke: #b0b0b0; stroke-width: 0.8; stroke-linecap: square"/>
     </g>
     <g id="line2d_6">
      <g>
       <use xlink:href="#ma31b5c8e7f" x="170" y="147.15" style="stroke: #000000; stroke-width: 0.8"/>
      </g>
     </g>
     <g id="text_3">
      <!-- 100 -->
      <g transform="translate(122.96125 155.739375)scale(0.24 -0.24)">
       <defs>
        <path id="ArialMT-31" d="M 2384 0 
L 1822 0 
L 1822 3584 
Q 1619 3391 1289 3197 
Q 959 3003 697 2906 
L 697 3450 
Q 1169 3672 1522 3987 
Q 1875 4303 2022 4600 
L 2384 4600 
L 2384 0 
z
" transform="scale(0.015625)"/>
       </defs>
       <use xlink:href="#ArialMT-31"/>
       <use xlink:href="#ArialMT-30" x="55.615234"/>
       <use xlink:href="#ArialMT-30" x="111.230469"/>
      </g>
     </g>
    </g>
    <g id="ytick_4">
     <g id="line2d_7">
      <path d="M 180 77.85 
L 1296 77.85 
" clip-path="url(#pa5584be1e0)" style="fill: none; stroke: #b0b0b0; stroke-width: 0.8; stroke-linecap: square"/>
     </g>
     <g id="line2d_8">
      <g>
       <use xlink:href="#ma31b5c8e7f" x="170" y="77.85" style="stroke: #000000; stroke-width: 0.8"/>
      </g>
     </g>
     <g id="text_4">
      <!-- 120 -->
      <g transform="translate(122.96125 86.439375)scale(0.24 -0.24)">
       <defs>
        <path id="ArialMT-32" d="M 3222 541 
L 3222 0 
L 194 0 
Q 188 203 259 391 
Q 375 700 629 1000 
Q 884 1300 1366 1694 
Q 2113 2306 2375 2664 
Q 2638 3022 2638 3341 
Q 2638 3675 2398 3904 
Q 2159 4134 1775 4134 
Q 1369 4134 1125 3890 
Q 881 3647 878 3216 
L 300 3275 
Q 359 3922 746 4261 
Q 1134 4600 1788 4600 
Q 2447 4600 2831 4234 
Q 3216 3869 3216 3328 
Q 3216 3053 3103 2787 
Q 2991 2522 2730 2228 
Q 2469 1934 1863 1422 
Q 1356 997 1212 845 
Q 1069 694 975 541 
L 3222 541 
z
" transform="scale(0.015625)"/>
       </defs>
       <use xlink:href="#ArialMT-31"/>
       <use xlink:href="#ArialMT-32" x="55.615234"/>
       <use xlink:href="#ArialMT-30" x="111.230469"/>
      </g>
     </g>
    </g>
    <g id="text_5">
     <!-- Blood pressure (mmHg) -->
     <g transform="translate(113.91 309.163125)rotate(-90)scale(0.24 -0.24)">
      <defs>
       <path id="ArialMT-42" d="M 469 0 
L 469 4581 
L 2188 4581 
Q 2713 4581 3030 4442 
Q 3347 4303 3526 4014 
Q 3706 3725 3706 3409 
Q 3706 3116 3547 2856 
Q 3388 2597 3066 2438 
Q 3481 2316 3704 2022 
Q 3928 1728 3928 1328 
Q 3928 1006 3792 729 
Q 3656 453 3456 303 
Q 3256 153 2954 76 
Q 2653 0 2216 0 
L 469 0 
z
M 1075 2656 
L 2066 2656 
Q 2469 2656 2644 2709 
Q 2875 2778 2992 2937 
Q 3109 3097 3109 3338 
Q 3109 3566 3000 3739 
Q 2891 3913 2687 3977 
Q 2484 4041 1991 4041 
L 1075 4041 
L 1075 2656 
z
M 1075 541 
L 2216 541 
Q 2509 541 2628 563 
Q 2838 600 2978 687 
Q 3119 775 3209 942 
Q 3300 1109 3300 1328 
Q 3300 1584 3169 1773 
Q 3038 1963 2805 2039 
Q 2572 2116 2134 2116 
L 1075 2116 
L 1075 541 
z
" transform="scale(0.015625)"/>
       <path id="ArialMT-6c" d="M 409 0 
L 409 4581 
L 972 4581 
L 972 0 
L 409 0 
z
" transform="scale(0.015625)"/>
       <path id="ArialMT-6f" d="M 213 1659 
Q 213 2581 725 3025 
Q 1153 3394 1769 3394 
Q 2453 3394 2887 2945 
Q 3322 2497 3322 1706 
Q 3322 1066 3130 698 
Q 2938 331 2570 128 
Q 2203 -75 1769 -75 
Q 1072 -75 642 372 
Q 213 819 213 1659 
z
M 791 1659 
Q 791 1022 1069 705 
Q 1347 388 1769 388 
Q 2188 388 2466 706 
Q 2744 1025 2744 1678 
Q 2744 2294 2464 2611 
Q 2184 2928 1769 2928 
Q 1347 2928 1069 2612 
Q 791 2297 791 1659 
z
" transform="scale(0.015625)"/>
       <path id="ArialMT-64" d="M 2575 0 
L 2575 419 
Q 2259 -75 1647 -75 
Q 1250 -75 917 144 
Q 584 363 401 755 
Q 219 1147 219 1656 
Q 219 2153 384 2558 
Q 550 2963 881 3178 
Q 1213 3394 1622 3394 
Q 1922 3394 2156 3267 
Q 2391 3141 2538 2938 
L 2538 4581 
L 3097 4581 
L 3097 0 
L 2575 0 
z
M 797 1656 
Q 797 1019 1065 703 
Q 1334 388 1700 388 
Q 2069 388 2326 689 
Q 2584 991 2584 1609 
Q 2584 2291 2321 2609 
Q 2059 2928 1675 2928 
Q 1300 2928 1048 2622 
Q 797 2316 797 1656 
z
" transform="scale(0.015625)"/>
       <path id="ArialMT-20" transform="scale(0.015625)"/>
       <path id="ArialMT-70" d="M 422 -1272 
L 422 3319 
L 934 3319 
L 934 2888 
Q 1116 3141 1344 3267 
Q 1572 3394 1897 3394 
Q 2322 3394 2647 3175 
Q 2972 2956 3137 2557 
Q 3303 2159 3303 1684 
Q 3303 1175 3120 767 
Q 2938 359 2589 142 
Q 2241 -75 1856 -75 
Q 1575 -75 1351 44 
Q 1128 163 984 344 
L 984 -1272 
L 422 -1272 
z
M 931 1641 
Q 931 1000 1190 694 
Q 1450 388 1819 388 
Q 2194 388 2461 705 
Q 2728 1022 2728 1688 
Q 2728 2322 2467 2637 
Q 2206 2953 1844 2953 
Q 1484 2953 1207 2617 
Q 931 2281 931 1641 
z
" transform="scale(0.015625)"/>
       <path id="ArialMT-72" d="M 416 0 
L 416 3319 
L 922 3319 
L 922 2816 
Q 1116 3169 1280 3281 
Q 1444 3394 1641 3394 
Q 1925 3394 2219 3213 
L 2025 2691 
Q 1819 2813 1613 2813 
Q 1428 2813 1281 2702 
Q 1134 2591 1072 2394 
Q 978 2094 978 1738 
L 978 0 
L 416 0 
z
" transform="scale(0.015625)"/>
       <path id="ArialMT-65" d="M 2694 1069 
L 3275 997 
Q 3138 488 2766 206 
Q 2394 -75 1816 -75 
Q 1088 -75 661 373 
Q 234 822 234 1631 
Q 234 2469 665 2931 
Q 1097 3394 1784 3394 
Q 2450 3394 2872 2941 
Q 3294 2488 3294 1666 
Q 3294 1616 3291 1516 
L 816 1516 
Q 847 969 1125 678 
Q 1403 388 1819 388 
Q 2128 388 2347 550 
Q 2566 713 2694 1069 
z
M 847 1978 
L 2700 1978 
Q 2663 2397 2488 2606 
Q 2219 2931 1791 2931 
Q 1403 2931 1139 2672 
Q 875 2413 847 1978 
z
" transform="scale(0.015625)"/>
       <path id="ArialMT-73" d="M 197 991 
L 753 1078 
Q 800 744 1014 566 
Q 1228 388 1613 388 
Q 2000 388 2187 545 
Q 2375 703 2375 916 
Q 2375 1106 2209 1216 
Q 2094 1291 1634 1406 
Q 1016 1563 777 1677 
Q 538 1791 414 1992 
Q 291 2194 291 2438 
Q 291 2659 392 2848 
Q 494 3038 669 3163 
Q 800 3259 1026 3326 
Q 1253 3394 1513 3394 
Q 1903 3394 2198 3281 
Q 2494 3169 2634 2976 
Q 2775 2784 2828 2463 
L 2278 2388 
Q 2241 2644 2061 2787 
Q 1881 2931 1553 2931 
Q 1166 2931 1000 2803 
Q 834 2675 834 2503 
Q 834 2394 903 2306 
Q 972 2216 1119 2156 
Q 1203 2125 1616 2013 
Q 2213 1853 2448 1751 
Q 2684 1650 2818 1456 
Q 2953 1263 2953 975 
Q 2953 694 2789 445 
Q 2625 197 2315 61 
Q 2006 -75 1616 -75 
Q 969 -75 630 194 
Q 291 463 197 991 
z
" transform="scale(0.015625)"/>
       <path id="ArialMT-75" d="M 2597 0 
L 2597 488 
Q 2209 -75 1544 -75 
Q 1250 -75 995 37 
Q 741 150 617 320 
Q 494 491 444 738 
Q 409 903 409 1263 
L 409 3319 
L 972 3319 
L 972 1478 
Q 972 1038 1006 884 
Q 1059 663 1231 536 
Q 1403 409 1656 409 
Q 1909 409 2131 539 
Q 2353 669 2445 892 
Q 2538 1116 2538 1541 
L 2538 3319 
L 3100 3319 
L 3100 0 
L 2597 0 
z
" transform="scale(0.015625)"/>
       <path id="ArialMT-28" d="M 1497 -1347 
Q 1031 -759 709 28 
Q 388 816 388 1659 
Q 388 2403 628 3084 
Q 909 3875 1497 4659 
L 1900 4659 
Q 1522 4009 1400 3731 
Q 1209 3300 1100 2831 
Q 966 2247 966 1656 
Q 966 153 1900 -1347 
L 1497 -1347 
z
" transform="scale(0.015625)"/>
       <path id="ArialMT-6d" d="M 422 0 
L 422 3319 
L 925 3319 
L 925 2853 
Q 1081 3097 1340 3245 
Q 1600 3394 1931 3394 
Q 2300 3394 2536 3241 
Q 2772 3088 2869 2813 
Q 3263 3394 3894 3394 
Q 4388 3394 4653 3120 
Q 4919 2847 4919 2278 
L 4919 0 
L 4359 0 
L 4359 2091 
Q 4359 2428 4304 2576 
Q 4250 2725 4106 2815 
Q 3963 2906 3769 2906 
Q 3419 2906 3187 2673 
Q 2956 2441 2956 1928 
L 2956 0 
L 2394 0 
L 2394 2156 
Q 2394 2531 2256 2718 
Q 2119 2906 1806 2906 
Q 1569 2906 1367 2781 
Q 1166 2656 1075 2415 
Q 984 2175 984 1722 
L 984 0 
L 422 0 
z
" transform="scale(0.015625)"/>
       <path id="ArialMT-48" d="M 513 0 
L 513 4581 
L 1119 4581 
L 1119 2700 
L 3500 2700 
L 3500 4581 
L 4106 4581 
L 4106 0 
L 3500 0 
L 3500 2159 
L 1119 2159 
L 1119 0 
L 513 0 
z
" transform="scale(0.015625)"/>
       <path id="ArialMT-67" d="M 319 -275 
L 866 -356 
Q 900 -609 1056 -725 
Q 1266 -881 1628 -881 
Q 2019 -881 2231 -725 
Q 2444 -569 2519 -288 
Q 2563 -116 2559 434 
Q 2191 0 1641 0 
Q 956 0 581 494 
Q 206 988 206 1678 
Q 206 2153 378 2554 
Q 550 2956 876 3175 
Q 1203 3394 1644 3394 
Q 2231 3394 2613 2919 
L 2613 3319 
L 3131 3319 
L 3131 450 
Q 3131 -325 2973 -648 
Q 2816 -972 2473 -1159 
Q 2131 -1347 1631 -1347 
Q 1038 -1347 672 -1080 
Q 306 -813 319 -275 
z
M 784 1719 
Q 784 1066 1043 766 
Q 1303 466 1694 466 
Q 2081 466 2343 764 
Q 2606 1063 2606 1700 
Q 2606 2309 2336 2618 
Q 2066 2928 1684 2928 
Q 1309 2928 1046 2623 
Q 784 2319 784 1719 
z
" transform="scale(0.015625)"/>
       <path id="ArialMT-29" d="M 791 -1347 
L 388 -1347 
Q 1322 153 1322 1656 
Q 1322 2244 1188 2822 
Q 1081 3291 891 3722 
Q 769 4003 388 4659 
L 791 4659 
Q 1378 3875 1659 3084 
Q 1900 2403 1900 1659 
Q 1900 816 1576 28 
Q 1253 -759 791 -1347 
z
" transform="scale(0.015625)"/>
      </defs>
      <use xlink:href="#ArialMT-42"/>
      <use xlink:href="#ArialMT-6c" x="66.699219"/>
      <use xlink:href="#ArialMT-6f" x="88.916016"/>
      <use xlink:href="#ArialMT-6f" x="144.53125"/>
      <use xlink:href="#ArialMT-64" x="200.146484"/>
      <use xlink:href="#ArialMT-20" x="255.761719"/>
      <use xlink:href="#ArialMT-70" x="283.544922"/>
      <use xlink:href="#ArialMT-72" x="339.160156"/>
      <use xlink:href="#ArialMT-65" x="372.460938"/>
      <use xlink:href="#ArialMT-73" x="428.076172"/>
      <use xlink:href="#ArialMT-73" x="478.076172"/>
      <use xlink:href="#ArialMT-75" x="528.076172"/>
      <use xlink:href="#ArialMT-72" x="583.691406"/>
      <use xlink:href="#ArialMT-65" x="616.992188"/>
      <use xlink:href="#ArialMT-20" x="672.607422"/>
      <use xlink:href="#ArialMT-28" x="700.390625"/>
      <use xlink:href="#ArialMT-6d" x="733.691406"/>
      <use xlink:href="#ArialMT-6d" x="816.992188"/>
      <use xlink:href="#ArialMT-48" x="900.292969"/>
      <use xlink:href="#ArialMT-67" x="972.509766"/>
      <use xlink:href="#ArialMT-29" x="1028.125"/>
     </g>
    </g>
   </g>
   <g id="line2d_9">
    <path d="M 230.727273 303.074985 
L 230.796081 303.109857 
L 230.864889 303.940564 
L 231.002504 307.181716 
L 231.071312 306.482233 
L 231.14012 306.761165 
L 231.277736 308.420727 
L 231.415352 310.496437 
L 231.48416 310.116443 
L 231.552968 310.174377 
L 231.690584 312.584347 
L 231.8282 315.915459 
L 231.965816 314.355596 
L 232.309855 318.796098 
L 232.447471 318.564537 
L 232.585087 318.972131 
L 232.653895 318.98327 
L 232.929127 319.999849 
L 233.204358 317.25112 
L 233.273166 317.403145 
L 233.410782 319.29415 
L 233.47959 318.88415 
L 233.617206 317.434099 
L 233.754822 318.28952 
L 234.167669 323.667671 
L 234.236477 324.017408 
L 234.305285 323.903415 
L 234.442901 324.021792 
L 234.924557 314.666009 
L 235.13098 305.283568 
L 235.268596 305.929109 
L 235.47502 302.464587 
L 235.543828 302.690904 
L 235.750252 303.988461 
L 236.025484 307.460099 
L 236.163099 307.069401 
L 236.300715 308.852741 
L 236.507139 309.923312 
L 237.47045 319.338779 
L 237.676874 319.54233 
L 237.883298 317.785356 
L 237.952106 317.921793 
L 238.020914 317.992184 
L 238.15853 317.073931 
L 238.296145 314.880611 
L 238.502569 311.190407 
L 238.708993 314.150995 
L 238.915417 310.579491 
L 239.190649 314.935467 
L 239.259456 314.628823 
L 239.328264 314.773287 
L 239.46588 315.588004 
L 239.603496 315.402754 
L 239.741112 316.531728 
L 239.80992 316.270484 
L 240.360383 308.632259 
L 240.497999 308.019752 
L 240.566807 308.14031 
L 240.635615 307.864653 
L 240.842039 305.113004 
L 240.910847 305.419953 
L 241.117271 307.485923 
L 241.323694 306.650399 
L 241.80535 307.681526 
L 241.942966 307.439859 
L 242.080582 308.323439 
L 242.287006 309.36606 
L 242.699853 310.479061 
L 242.837469 310.817884 
L 243.250317 310.300979 
L 243.45674 309.909604 
L 243.663164 309.968918 
L 243.80078 309.82136 
L 243.938396 310.423027 
L 244.14482 311.564634 
L 244.420051 311.06171 
L 244.557667 311.132044 
L 244.626475 311.04261 
L 244.764091 310.221828 
L 245.039323 308.484363 
L 245.176939 308.504957 
L 245.520978 307.123098 
L 245.933826 303.844413 
L 246.14025 301.367404 
L 246.277866 301.90727 
L 246.346674 301.854639 
L 246.621905 299.07695 
L 246.828329 301.731775 
L 246.897137 301.634094 
L 247.103561 300.222739 
L 247.447601 301.303516 
L 247.516408 301.467685 
L 247.585216 301.371381 
L 247.722832 300.668511 
L 247.79164 300.699635 
L 247.998064 301.784398 
L 248.204488 301.148437 
L 248.273296 301.184021 
L 248.617335 301.943825 
L 248.823759 301.822948 
L 249.098991 302.217564 
L 249.374223 302.041315 
L 249.924686 302.800845 
L 250.199918 303.178405 
L 250.406342 303.397649 
L 250.612765 303.255849 
L 250.819189 303.245173 
L 250.956805 303.186032 
L 251.232037 303.357805 
L 251.369653 303.317911 
L 252.195348 305.214786 
L 252.332964 305.135614 
L 252.47058 305.094394 
L 252.745811 305.31584 
L 252.952235 305.329764 
L 253.296275 305.624656 
L 253.502699 305.513107 
L 254.603626 304.531793 
L 255.016473 304.586331 
L 255.222897 304.681183 
L 255.429321 304.582718 
L 255.77336 304.703712 
L 255.979784 304.559765 
L 256.323824 304.720894 
L 256.46144 304.714011 
L 257.080711 305.125784 
L 257.562367 305.238711 
L 257.837598 305.293773 
L 258.732102 305.415795 
L 259.144949 305.162752 
L 259.488989 305.048562 
L 260.521108 305.177453 
L 260.865148 305.033812 
L 262.241306 304.786444 
L 262.516538 304.73538 
L 263.755081 304.845 
L 264.236736 304.786276 
L 266.025743 304.643461 
L 266.507398 304.592085 
L 267.883557 304.399946 
L 268.915676 304.305452 
L 271.736801 304.081513 
L 274.213887 303.6311 
L 278.617594 303.497517 
L 281.851567 303.50867 
L 291.140638 303.4778 
L 307.241695 303.262144 
L 308.136198 303.322584 
L 341.989701 303.131977 
L 370.682609 303.072135 
L 470.454113 303.040047 
L 935.251703 303.038757 
L 935.251703 303.038757 
" style="fill: none; stroke: #000000; stroke-width: 4; stroke-linecap: square"/>
   </g>
   <g id="line2d_10">
    <path d="M 308.232529 303.074933 
L 308.576569 303.080101 
L 308.645376 303.204639 
L 308.714184 304.006614 
L 308.920608 308.805689 
L 308.989416 308.261856 
L 309.127032 310.837264 
L 309.19584 310.585913 
L 309.264648 311.409142 
L 309.471072 317.233534 
L 309.53988 317.166723 
L 309.746303 313.242206 
L 310.159151 298.677244 
L 310.778422 309.904154 
L 310.84723 309.664513 
L 310.916038 309.804281 
L 311.19127 316.454604 
L 311.397694 314.537451 
L 311.466502 314.802749 
L 311.53531 314.585718 
L 311.672926 313.7608 
L 312.223389 324.416374 
L 312.361005 324.198818 
L 312.498621 324.9841 
L 312.84266 328.737195 
L 312.911468 328.135506 
L 313.1867 319.709054 
L 313.393124 315.679239 
L 313.599548 319.824767 
L 313.805971 316.348249 
L 313.874779 316.192539 
L 313.943587 316.328034 
L 314.150011 320.590215 
L 314.218819 320.301125 
L 314.287627 319.907459 
L 314.425243 323.737215 
L 314.562859 327.189265 
L 314.700475 321.692447 
L 314.83809 316.562222 
L 314.975706 317.179735 
L 315.52617 307.915512 
L 315.663786 306.343359 
L 315.870209 308.590433 
L 315.939017 308.287968 
L 316.076633 307.734692 
L 316.214249 308.103057 
L 316.558289 304.881338 
L 316.627097 305.348972 
L 317.17756 312.073907 
L 317.246368 312.047246 
L 317.315176 312.243838 
L 317.5216 314.206838 
L 317.590408 314.06644 
L 317.796832 313.457811 
L 317.86564 313.442267 
L 318.003255 311.703023 
L 318.209679 308.935926 
L 318.347295 309.017133 
L 318.484911 307.583237 
L 318.622527 305.714374 
L 318.691335 306.046612 
L 318.897759 308.667398 
L 318.966566 308.475859 
L 319.035374 308.587139 
L 319.448222 314.605497 
L 319.51703 314.525847 
L 319.654646 311.844508 
L 319.86107 308.746521 
L 319.998685 309.485818 
L 320.549149 303.349638 
L 320.617957 303.609451 
L 320.755573 304.434792 
L 320.824381 304.374086 
L 321.030804 303.263023 
L 321.237228 300.592962 
L 321.443652 297.303384 
L 321.650076 301.698746 
L 321.718884 301.682509 
L 321.925308 299.470511 
L 322.269347 302.542015 
L 322.475771 303.992049 
L 322.613387 303.670094 
L 322.819811 304.267265 
L 322.957427 304.105774 
L 323.095042 304.32076 
L 323.232658 304.020537 
L 323.301466 304.080938 
L 323.576698 304.768817 
L 323.920738 306.285991 
L 324.127162 306.860534 
L 324.333585 307.755795 
L 324.471201 307.271217 
L 324.677625 306.392353 
L 324.746433 306.401295 
L 324.952857 306.984706 
L 325.365704 308.157415 
L 325.434512 308.08585 
L 325.640936 307.905727 
L 325.916168 306.491433 
L 326.260207 303.243536 
L 326.329015 303.485147 
L 326.535439 304.726611 
L 326.604247 304.700515 
L 326.810671 303.956544 
L 327.085903 305.421827 
L 327.154711 305.204239 
L 327.292326 304.947917 
L 327.429942 304.858596 
L 327.636366 304.426715 
L 327.773982 304.444806 
L 327.980406 304.013436 
L 328.255638 304.29471 
L 328.393253 304.210422 
L 328.530869 304.41683 
L 328.737293 304.801605 
L 328.943717 304.407964 
L 329.562988 303.402029 
L 329.700604 303.62738 
L 329.975836 304.245183 
L 330.251068 304.313102 
L 330.526299 304.599452 
L 331.145571 303.979295 
L 331.48961 304.301972 
L 331.627226 304.445512 
L 332.040074 305.38028 
L 332.17769 305.353216 
L 332.659345 304.984585 
L 333.003385 305.186001 
L 333.278617 305.385742 
L 333.622656 305.588065 
L 333.82908 305.238253 
L 334.104312 304.902415 
L 334.517159 304.648527 
L 335.136431 304.897654 
L 335.342855 305.053016 
L 335.893318 304.618542 
L 336.16855 304.52045 
L 336.443782 304.583709 
L 336.581397 304.629935 
L 336.994245 304.952454 
L 337.269477 304.75505 
L 337.544709 304.666267 
L 337.957556 304.800736 
L 338.439212 305.225285 
L 338.714443 305.19301 
L 339.058483 304.939645 
L 339.333715 304.818041 
L 340.228218 305.006677 
L 341.053913 304.771081 
L 341.673185 304.751512 
L 342.567688 304.265854 
L 343.324575 304.512438 
L 344.49431 304.42558 
L 345.320005 304.39716 
L 345.801661 304.355845 
L 346.48974 304.335011 
L 347.797091 304.033072 
L 348.278746 303.964556 
L 349.242057 303.874369 
L 350.205368 303.830355 
L 350.893448 303.876182 
L 351.650335 303.8843 
L 352.613646 303.810723 
L 353.439341 303.743762 
L 355.297155 303.608304 
L 358.737552 303.53652 
L 360.251327 303.521699 
L 366.031193 303.493221 
L 377.79735 303.272027 
L 380.205627 303.151188 
L 380.412051 303.130697 
L 382.338673 303.343073 
L 383.233176 303.22657 
L 384.884567 303.326247 
L 388.187347 303.310159 
L 391.42132 303.241417 
L 392.315823 303.147036 
L 393.141519 303.165769 
L 397.614034 303.197357 
L 398.921385 303.193926 
L 400.572775 303.182473 
L 421.352771 303.124999 
L 438.073099 303.088013 
L 498.280041 303.047017 
L 1012.756959 303.04051 
L 1012.756959 303.04051 
" style="fill: none; stroke: #000000; stroke-width: 4; stroke-linecap: square"/>
   </g>
   <g id="line2d_11">
    <path d="M 385.737785 304.592629 
L 385.875401 311.298633 
L 385.944209 311.874913 
L 386.013017 314.217817 
L 386.425864 299.230775 
L 386.701096 305.591636 
L 386.976328 311.066532 
L 387.045136 310.353551 
L 387.320368 307.303007 
L 387.457983 303.172094 
L 387.595599 306.888457 
L 387.664407 306.391449 
L 387.870831 299.244725 
L 388.008447 303.537057 
L 388.146063 306.071664 
L 388.214871 306.556168 
L 388.352487 308.834996 
L 388.490102 306.608107 
L 388.55891 306.956255 
L 388.696526 309.423646 
L 388.765334 309.391393 
L 388.834142 308.802427 
L 388.90295 310.3761 
L 389.109374 319.456928 
L 389.591029 308.653874 
L 389.797453 317.869449 
L 389.866261 316.594369 
L 389.935069 315.178335 
L 390.003877 315.213011 
L 390.210301 316.127626 
L 390.829572 331.669614 
L 391.035996 329.116024 
L 391.104804 329.723784 
L 391.173612 330.237463 
L 391.448844 328.8213 
L 391.586459 325.560059 
L 391.930499 315.184999 
L 392.136923 318.140375 
L 392.274539 316.086967 
L 392.412155 317.996848 
L 392.480963 317.643405 
L 392.618578 313.814821 
L 392.687386 314.285171 
L 392.825002 316.480893 
L 393.031426 314.284476 
L 393.100234 314.309324 
L 393.306658 317.182433 
L 393.444274 313.388841 
L 393.650697 309.179475 
L 393.719505 309.501635 
L 393.788313 309.0939 
L 393.994737 306.300445 
L 394.338777 309.161265 
L 394.476393 309.377147 
L 394.614008 308.12853 
L 394.751624 306.517837 
L 394.88924 307.086096 
L 395.026856 305.021177 
L 395.164472 303.635495 
L 395.302088 304.801822 
L 395.439704 308.541186 
L 395.646127 314.10153 
L 395.714935 314.104949 
L 395.783743 313.976328 
L 395.921359 312.485763 
L 396.058975 310.347276 
L 396.265399 311.375854 
L 396.471823 307.778147 
L 396.540631 307.889618 
L 396.609439 307.987818 
L 397.022286 304.656191 
L 397.159902 304.208097 
L 397.297518 301.983798 
L 397.710365 294.223894 
L 397.916789 300.327276 
L 397.985597 300.224515 
L 398.123213 297.192628 
L 398.192021 297.947296 
L 398.329637 301.418642 
L 398.536061 298.763414 
L 398.604869 299.780006 
L 398.742484 301.333296 
L 399.22414 297.594203 
L 399.292948 297.515961 
L 399.361756 297.762625 
L 399.636988 300.375437 
L 399.705796 300.212621 
L 399.774603 300.34498 
L 400.118643 302.802572 
L 400.187451 302.761117 
L 400.325067 303.153329 
L 400.531491 303.514096 
L 400.806722 303.685708 
L 400.944338 304.481339 
L 401.288378 307.002658 
L 401.425994 306.995647 
L 401.632418 306.964812 
L 401.907649 307.363656 
L 401.976457 307.324153 
L 402.114073 307.827926 
L 402.320497 308.388421 
L 402.389305 308.444614 
L 402.595729 309.679601 
L 403.077384 311.781437 
L 403.146192 311.855401 
L 403.490232 310.935834 
L 403.55904 310.99946 
L 403.696656 311.186779 
L 403.903079 310.808002 
L 403.971887 310.95073 
L 404.178311 311.727653 
L 404.384735 311.085434 
L 404.591159 309.33934 
L 405.004006 305.858568 
L 405.072814 305.961091 
L 405.279238 306.949412 
L 405.348046 306.903095 
L 405.623278 305.547479 
L 405.760894 306.071369 
L 405.829702 306.04646 
L 406.242549 304.428349 
L 406.380165 304.092142 
L 406.517781 304.370314 
L 406.655397 303.937044 
L 406.724205 303.703238 
L 406.793013 303.729925 
L 406.930629 304.087264 
L 406.999436 304.053908 
L 407.20586 303.755575 
L 407.618708 304.011848 
L 407.962748 303.402696 
L 408.375595 303.851761 
L 408.719635 304.757799 
L 408.926059 304.703903 
L 409.270098 304.584247 
L 409.751754 304.365423 
L 409.958178 304.649797 
L 410.164601 304.75921 
L 410.302217 304.724734 
L 410.852681 305.23361 
L 411.403144 305.022779 
L 411.678376 305.307864 
L 412.091224 305.133013 
L 412.848111 304.320006 
L 413.123343 304.44859 
L 413.53619 304.208743 
L 413.88023 304.083478 
L 414.361885 304.492461 
L 414.774733 304.49643 
L 414.981157 304.513922 
L 415.256388 304.658806 
L 415.462812 304.647344 
L 415.944468 304.852203 
L 416.2197 304.775742 
L 416.494931 304.699671 
L 416.701355 304.659055 
L 417.458242 304.828839 
L 418.21513 304.371367 
L 418.972017 304.540998 
L 420.967447 304.200756 
L 421.311487 304.147183 
L 421.999566 304.269545 
L 424.270228 304.012952 
L 425.784002 303.799103 
L 427.504201 303.888849 
L 431.357445 303.988889 
L 432.733604 303.833021 
L 437.206119 303.551029 
L 449.385123 303.369142 
L 459.49989 303.272078 
L 460.187969 303.407509 
L 462.596247 303.30375 
L 471.334854 303.180731 
L 472.298165 303.221042 
L 474.981675 303.285643 
L 476.633065 303.167375 
L 479.041343 303.189404 
L 492.046042 303.146498 
L 557.826426 303.054291 
L 759.433671 303.042752 
L 1090.262215 303.042734 
L 1090.262215 303.042734 
" style="fill: none; stroke: #000000; stroke-width: 4; stroke-linecap: square"/>
   </g>
   <g id="line2d_12">
    <path d="M 463.243041 303.074705 
L 463.724697 303.142782 
L 463.793505 303.828971 
L 464.068736 316.733557 
L 464.137544 315.878753 
L 464.206352 315.196299 
L 464.412776 298.68075 
L 464.481584 298.723028 
L 464.756816 303.106848 
L 465.238471 316.957664 
L 465.307279 316.993298 
L 465.376087 317.973282 
L 465.651319 326.557492 
L 465.788935 316.935725 
L 466.064166 301.183181 
L 466.132974 301.365772 
L 466.27059 304.460629 
L 466.408206 303.949144 
L 466.61463 306.127468 
L 466.752246 304.389179 
L 466.821054 304.60407 
L 466.889862 304.393235 
L 466.95867 304.857134 
L 467.371517 318.216243 
L 467.440325 318.072513 
L 467.577941 316.712965 
L 467.715557 319.18433 
L 467.921981 321.574248 
L 468.059597 322.148136 
L 468.197212 320.748723 
L 468.334828 314.628377 
L 468.472444 307.709824 
L 468.678868 314.50832 
L 468.747676 313.782974 
L 468.816484 312.107786 
L 468.885292 312.148338 
L 469.091716 315.270648 
L 469.160523 315.767498 
L 469.298139 318.192165 
L 469.366947 318.128325 
L 469.435755 317.893351 
L 469.848603 319.451245 
L 469.917411 319.194049 
L 470.123835 317.135772 
L 470.399066 319.993285 
L 470.467874 319.949629 
L 470.811914 320.447512 
L 470.880722 320.086113 
L 471.155954 316.078761 
L 471.293569 316.684687 
L 471.362377 316.545301 
L 471.568801 314.548574 
L 471.637609 315.061827 
L 471.775225 317.390558 
L 471.844033 317.005141 
L 471.981649 314.0775 
L 472.050457 314.197635 
L 472.188073 316.676394 
L 472.25688 316.085388 
L 472.60092 304.491137 
L 472.669728 304.970831 
L 472.807344 305.99859 
L 473.288999 301.677825 
L 473.357807 301.885762 
L 473.426615 301.445089 
L 473.701847 296.913456 
L 473.839463 296.423562 
L 473.908271 296.660351 
L 473.977079 296.49477 
L 474.252311 287.319014 
L 474.527542 298.975488 
L 474.665158 296.118471 
L 474.733966 296.639546 
L 474.871582 298.611571 
L 475.009198 296.71136 
L 475.078006 296.939732 
L 475.215622 298.367173 
L 475.353237 296.584119 
L 475.422045 296.885154 
L 475.559661 298.440806 
L 475.834893 297.148936 
L 475.903701 297.371403 
L 476.110125 301.093464 
L 476.178933 301.006196 
L 476.316549 300.478325 
L 476.798204 305.549243 
L 476.867012 305.44103 
L 477.004628 303.867975 
L 477.073436 303.999781 
L 477.211052 304.761293 
L 477.348668 303.018149 
L 477.555091 300.515284 
L 477.692707 300.076832 
L 477.761515 300.218857 
L 478.105555 303.247661 
L 478.174363 303.080199 
L 478.243171 303.045746 
L 478.449594 304.526305 
L 478.862442 306.325951 
L 479.000058 306.107967 
L 479.068866 306.269015 
L 479.481713 309.630547 
L 479.688137 311.061867 
L 479.825753 310.926521 
L 480.032177 310.782856 
L 480.238601 311.545734 
L 480.307409 311.501314 
L 480.513832 310.477919 
L 480.58264 310.532521 
L 480.857872 311.693071 
L 481.133104 312.71501 
L 481.339528 312.869012 
L 481.545951 313.489445 
L 481.614759 313.409839 
L 482.027607 312.106481 
L 482.440455 311.68228 
L 482.646878 312.183444 
L 482.784494 311.424692 
L 483.472574 305.844242 
L 483.541382 305.950936 
L 483.747805 306.737407 
L 483.885421 306.066832 
L 484.023037 305.253485 
L 484.091845 305.347341 
L 484.298269 306.315649 
L 484.642308 305.065745 
L 484.848732 305.015599 
L 484.91754 305.089476 
L 484.986348 305.021597 
L 485.192772 304.264117 
L 485.26158 304.37569 
L 485.399196 304.68938 
L 485.743235 304.184727 
L 485.812043 304.246348 
L 486.018467 304.441596 
L 486.362507 303.826086 
L 486.431315 303.887935 
L 486.568931 303.97438 
L 486.775354 303.859238 
L 487.188202 304.38957 
L 487.394626 304.43414 
L 487.60105 304.637707 
L 487.738665 304.780417 
L 488.082705 304.403931 
L 488.289129 304.103294 
L 488.564361 304.304476 
L 488.770784 304.006002 
L 488.839592 304.074509 
L 489.114824 304.639634 
L 489.871711 304.347176 
L 490.146943 304.561296 
L 490.353367 304.436245 
L 490.628599 304.626593 
L 490.90383 304.888682 
L 491.454294 304.474837 
L 492.348797 304.392674 
L 492.624029 304.50677 
L 493.312108 304.053858 
L 493.58734 304.046216 
L 494.344227 304.400529 
L 494.688267 304.123946 
L 495.376346 304.241401 
L 495.789194 304.534092 
L 495.995618 304.45294 
L 496.477273 304.213361 
L 497.647008 304.288942 
L 498.197471 304.213207 
L 498.885551 304.314592 
L 499.160782 304.124209 
L 499.57363 303.96332 
L 500.330517 303.803924 
L 500.949789 303.748107 
L 501.706676 303.691952 
L 504.321377 303.877583 
L 504.803033 303.888407 
L 508.862701 304.214001 
L 512.715945 303.719318 
L 514.298528 303.597538 
L 518.56462 303.428196 
L 525.995876 303.346073 
L 537.899649 303.276141 
L 538.312497 303.396633 
L 548.014415 303.196701 
L 552.211699 303.273836 
L 575.468781 303.123076 
L 814.645157 303.040905 
L 1167.767471 303.04087 
L 1167.767471 303.04087 
" style="fill: none; stroke: #000000; stroke-width: 4; stroke-linecap: square"/>
   </g>
   <g id="line2d_13">
    <path d="M 540.748297 303.071858 
L 541.161145 302.927492 
L 541.298761 302.970574 
L 541.367569 304.100751 
L 541.505185 322.647393 
L 541.642801 346.514117 
L 542.055648 310.388514 
L 542.124456 315.688998 
L 542.193264 324.573102 
L 542.262072 323.294023 
L 542.33088 319.084732 
L 542.399688 320.578103 
L 542.468496 322.166674 
L 542.606112 317.516661 
L 542.812535 295.694694 
L 542.881343 298.030822 
L 543.018959 312.451443 
L 543.362999 296.743482 
L 543.500615 294.547225 
L 543.569423 295.190256 
L 543.707039 301.324799 
L 543.844654 297.804085 
L 543.913462 298.696092 
L 544.257502 304.907835 
L 544.395118 306.983009 
L 544.601542 310.66661 
L 544.945581 301.972759 
L 545.014389 302.708237 
L 545.152005 306.256263 
L 545.358429 304.199862 
L 545.564853 309.616241 
L 545.633661 309.28954 
L 545.9777 303.92408 
L 546.115316 301.812534 
L 546.32174 297.647779 
L 546.390548 298.921782 
L 546.66578 319.706948 
L 546.734588 319.073791 
L 547.078627 303.728238 
L 547.216243 299.12771 
L 547.422667 292.103936 
L 547.560283 293.386626 
L 547.697899 293.268421 
L 547.904322 291.061561 
L 548.041938 293.46487 
L 548.110746 293.219813 
L 548.248362 292.232271 
L 548.454786 294.632551 
L 548.592402 284.891924 
L 548.730018 272.592881 
L 548.867634 284.467394 
L 548.936441 290.927 
L 549.005249 290.758879 
L 549.142865 284.021789 
L 549.349289 293.424481 
L 549.486905 291.043775 
L 549.693329 294.418874 
L 549.899753 297.540465 
L 549.96856 296.969614 
L 550.037368 297.179215 
L 550.381408 303.002623 
L 550.450216 302.88183 
L 550.65664 301.254471 
L 550.863064 303.481591 
L 550.931872 303.132128 
L 551.207103 300.431564 
L 551.275911 300.357563 
L 551.482335 301.877329 
L 551.551143 301.39217 
L 551.688759 299.108287 
L 551.757567 299.308549 
L 551.895183 301.84038 
L 551.963991 301.726831 
L 552.101606 300.116414 
L 552.239222 302.225904 
L 552.376838 303.624038 
L 552.514454 299.32092 
L 552.65207 294.527775 
L 552.720878 294.600745 
L 552.789686 295.158365 
L 552.858494 294.740703 
L 552.99611 292.033062 
L 553.064917 292.355639 
L 553.340149 298.878336 
L 553.477765 298.170894 
L 553.684189 297.179001 
L 553.821805 297.593627 
L 553.959421 297.854776 
L 554.165844 296.218888 
L 554.234652 296.259172 
L 554.441076 299.457137 
L 554.785116 304.955722 
L 554.853924 305.189411 
L 555.404387 310.363435 
L 555.610811 309.260263 
L 555.748427 310.172462 
L 555.886043 308.762569 
L 556.023659 307.932684 
L 556.161274 309.119859 
L 556.230082 309.044708 
L 556.436506 306.883597 
L 556.574122 308.326895 
L 556.711738 309.713592 
L 556.918162 308.52424 
L 556.98697 308.979813 
L 557.262201 311.410968 
L 557.399817 311.856796 
L 557.468625 312.013445 
L 557.675049 311.116338 
L 557.812665 312.081634 
L 557.881473 311.738813 
L 558.156705 308.053522 
L 558.363128 307.675503 
L 558.431936 307.88643 
L 558.63836 309.743469 
L 558.707168 309.648075 
L 558.844784 309.15246 
L 558.9824 310.096677 
L 559.188824 311.013258 
L 559.326439 311.027504 
L 559.532863 312.208276 
L 560.152135 316.04407 
L 560.220943 315.999621 
L 560.496174 315.348044 
L 560.771406 315.51488 
L 560.909022 315.73494 
L 561.184254 315.158904 
L 561.665909 316.549292 
L 561.734717 316.486753 
L 561.872333 316.372204 
L 562.147565 317.051263 
L 562.62922 315.387341 
L 562.904452 315.164207 
L 563.110876 315.258063 
L 563.248492 314.735324 
L 563.592531 311.057583 
L 563.936571 307.349791 
L 564.074187 307.091725 
L 564.280611 307.654875 
L 564.418226 306.70128 
L 564.62465 305.432267 
L 564.831074 306.013867 
L 564.96869 305.271467 
L 565.106306 304.576564 
L 565.381538 304.875253 
L 565.519153 304.919134 
L 565.656769 304.409006 
L 565.794385 303.982879 
L 566.000809 304.411131 
L 566.276041 304.045082 
L 566.413657 304.14007 
L 566.551272 303.982427 
L 567.101736 302.902015 
L 567.30816 302.898709 
L 567.927431 303.477275 
L 568.133855 303.545045 
L 568.271471 303.601192 
L 568.477895 303.323356 
L 568.821934 302.902269 
L 569.30359 302.751323 
L 569.510014 303.276201 
L 569.716437 303.536195 
L 569.922861 303.412612 
L 570.198093 303.204044 
L 570.473325 303.461099 
L 570.679748 303.772026 
L 571.367828 303.573917 
L 571.780675 302.968633 
L 572.124715 302.774792 
L 572.675178 302.665285 
L 572.95041 302.816692 
L 573.156834 302.922042 
L 573.776105 302.639262 
L 574.051337 302.683585 
L 574.257761 302.748036 
L 574.601801 302.688111 
L 574.94584 302.615616 
L 575.152264 302.596313 
L 575.427496 302.6366 
L 575.702728 302.556665 
L 576.115575 302.763539 
L 576.390807 302.807651 
L 577.078886 302.52131 
L 578.042197 302.811608 
L 579.693588 303.107677 
L 580.037627 303.097815 
L 580.381667 303.205448 
L 580.863323 303.470458 
L 584.234911 304.472394 
L 585.060606 304.458326 
L 587.537692 304.692224 
L 588.432195 304.694406 
L 589.464314 304.595415 
L 591.803784 304.037503 
L 593.799214 303.665545 
L 598.684577 303.17474 
L 601.987358 303.102459 
L 608.59292 303.259388 
L 613.065435 303.277061 
L 613.340667 303.297777 
L 613.615899 303.314928 
L 618.432454 303.298667 
L 618.776494 303.377626 
L 619.258149 303.257534 
L 619.464573 303.304813 
L 620.90954 303.110579 
L 623.799473 303.214143 
L 624.487552 303.060122 
L 625.038016 303.142097 
L 626.482982 303.256542 
L 628.54722 303.197876 
L 629.441724 303.187151 
L 630.88669 303.216026 
L 634.808742 303.187536 
L 635.978477 303.12261 
L 637.905099 303.1495 
L 640.244569 303.142231 
L 655.86397 303.103379 
L 1245.272727 303.027484 
L 1245.272727 303.027484 
" style="fill: none; stroke: #000000; stroke-width: 4; stroke-linecap: square"/>
   </g>
   <g id="line2d_14">
    <path d="M 230.727273 322.696306 
L 234.570509 322.910114 
L 238.413744 323.123921 
L 242.25698 323.337728 
L 246.100216 323.551536 
L 249.943452 323.765343 
L 253.786688 323.97915 
L 257.629924 324.192958 
L 261.473159 324.406765 
L 265.316395 324.620572 
L 269.159631 324.83438 
L 273.002867 325.048187 
L 276.846103 325.261994 
L 280.689339 325.475802 
L 284.532575 325.689609 
L 288.37581 325.903416 
L 292.219046 326.117224 
L 296.062282 326.331031 
L 299.905518 326.544838 
L 303.748754 326.758646 
L 307.59199 326.972453 
L 311.435225 327.18626 
L 315.278461 327.400068 
L 319.121697 327.613875 
L 322.964933 327.827682 
L 326.808169 328.04149 
L 330.651405 328.255297 
L 334.49464 328.469104 
L 338.337876 328.682912 
L 342.181112 328.896719 
L 346.024348 329.110526 
L 349.867584 329.324334 
L 353.71082 329.538141 
L 357.554056 329.751948 
L 361.397291 329.965756 
L 365.240527 330.179563 
L 369.083763 330.39337 
L 372.926999 330.607178 
L 376.770235 330.820985 
L 380.613471 331.034792 
L 384.456706 331.2486 
L 388.299942 331.462407 
L 392.143178 331.676214 
L 395.986414 331.890022 
L 399.82965 332.103829 
L 403.672886 332.317636 
L 407.516121 332.531444 
L 411.359357 332.745251 
L 415.202593 332.959058 
L 419.045829 333.172866 
L 422.889065 333.386673 
L 426.732301 333.60048 
L 430.575537 333.814288 
L 434.418772 334.028095 
L 438.262008 334.241902 
L 442.105244 334.45571 
L 445.94848 334.669517 
L 449.791716 334.883324 
L 453.634952 335.097132 
L 457.478187 335.310939 
L 461.321423 335.524746 
L 465.164659 335.738554 
L 469.007895 335.952361 
L 472.851131 336.166168 
L 476.694367 336.379976 
L 480.537603 336.593783 
L 484.380838 336.80759 
L 488.224074 337.021398 
L 492.06731 337.235205 
L 495.910546 337.449012 
L 499.753782 337.66282 
L 503.597018 337.876627 
L 507.440253 338.090434 
L 511.283489 338.304242 
L 515.126725 338.518049 
L 518.969961 338.731856 
L 522.813197 338.945664 
L 526.656433 339.159471 
L 530.499668 339.373278 
L 534.342904 339.587086 
L 538.18614 339.800893 
L 542.029376 340.0147 
L 545.872612 340.228508 
L 549.715848 340.442315 
L 553.559084 340.656122 
L 557.402319 340.86993 
L 561.245555 341.083737 
L 565.088791 341.297544 
L 568.932027 341.511352 
L 572.775263 341.725159 
L 576.618499 341.938966 
L 580.461734 342.152774 
L 584.30497 342.366581 
L 588.148206 342.580388 
L 591.991442 342.794196 
L 595.834678 343.008003 
L 599.677914 343.22181 
L 603.521149 343.435618 
L 607.364385 343.649425 
L 611.207621 343.863232 
" clip-path="url(#pa5584be1e0)" style="fill: none; stroke-dasharray: 7.4,3.2; stroke-dashoffset: 0; stroke: #000000; stroke-width: 2"/>
   </g>
   <g id="line2d_15">
    <path d="M 230.727273 303.983005 
L 234.570509 303.66363 
L 238.413744 303.344256 
L 242.25698 303.024882 
L 246.100216 302.705508 
L 249.943452 302.386134 
L 253.786688 302.06676 
L 257.629924 301.747386 
L 261.473159 301.428011 
L 265.316395 301.108637 
L 269.159631 300.789263 
L 273.002867 300.469889 
L 276.846103 300.150515 
L 280.689339 299.831141 
L 284.532575 299.511766 
L 288.37581 299.192392 
L 292.219046 298.873018 
L 296.062282 298.553644 
L 299.905518 298.23427 
L 303.748754 297.914896 
L 307.59199 297.595522 
L 311.435225 297.276147 
L 315.278461 296.956773 
L 319.121697 296.637399 
L 322.964933 296.318025 
L 326.808169 295.998651 
L 330.651405 295.679277 
L 334.49464 295.359903 
L 338.337876 295.040528 
L 342.181112 294.721154 
L 346.024348 294.40178 
L 349.867584 294.082406 
L 353.71082 293.763032 
L 357.554056 293.443658 
L 361.397291 293.124284 
L 365.240527 292.804909 
L 369.083763 292.485535 
L 372.926999 292.166161 
L 376.770235 291.846787 
L 380.613471 291.527413 
L 384.456706 291.208039 
L 388.299942 290.888665 
L 392.143178 290.56929 
L 395.986414 290.249916 
L 399.82965 289.930542 
L 403.672886 289.611168 
L 407.516121 289.291794 
L 411.359357 288.97242 
L 415.202593 288.653046 
L 419.045829 288.333671 
L 422.889065 288.014297 
L 426.732301 287.694923 
L 430.575537 287.375549 
L 434.418772 287.056175 
L 438.262008 286.736801 
L 442.105244 286.417427 
L 445.94848 286.098052 
L 449.791716 285.778678 
L 453.634952 285.459304 
L 457.478187 285.13993 
L 461.321423 284.820556 
L 465.164659 284.501182 
L 469.007895 284.181807 
L 472.851131 283.862433 
L 476.694367 283.543059 
L 480.537603 283.223685 
L 484.380838 282.904311 
L 488.224074 282.584937 
L 492.06731 282.265563 
L 495.910546 281.946188 
L 499.753782 281.626814 
L 503.597018 281.30744 
L 507.440253 280.988066 
L 511.283489 280.668692 
L 515.126725 280.349318 
L 518.969961 280.029944 
L 522.813197 279.710569 
L 526.656433 279.391195 
L 530.499668 279.071821 
L 534.342904 278.752447 
L 538.18614 278.433073 
L 542.029376 278.113699 
L 545.872612 277.794325 
L 549.715848 277.47495 
L 553.559084 277.155576 
L 557.402319 276.836202 
L 561.245555 276.516828 
L 565.088791 276.197454 
L 568.932027 275.87808 
L 572.775263 275.558706 
L 576.618499 275.239331 
L 580.461734 274.919957 
L 584.30497 274.600583 
L 588.148206 274.281209 
L 591.991442 273.961835 
L 595.834678 273.642461 
L 599.677914 273.323087 
L 603.521149 273.003712 
L 607.364385 272.684338 
L 611.207621 272.364964 
" clip-path="url(#pa5584be1e0)" style="fill: none; stroke-dasharray: 7.4,3.2; stroke-dashoffset: 0; stroke: #000000; stroke-width: 2"/>
   </g>
   <g id="line2d_16">
    <path d="M 230.727273 303.342776 
L 234.570509 303.341295 
L 238.413744 303.339814 
L 242.25698 303.338333 
L 246.100216 303.336852 
L 249.943452 303.335371 
L 253.786688 303.33389 
L 257.629924 303.332409 
L 261.473159 303.330928 
L 265.316395 303.329447 
L 269.159631 303.327966 
L 273.002867 303.326485 
L 276.846103 303.325004 
L 280.689339 303.323524 
L 284.532575 303.322043 
L 288.37581 303.320562 
L 292.219046 303.319081 
L 296.062282 303.3176 
L 299.905518 303.316119 
L 303.748754 303.314638 
L 307.59199 303.313157 
L 311.435225 303.311676 
L 315.278461 303.310195 
L 319.121697 303.308714 
L 322.964933 303.307233 
L 326.808169 303.305752 
L 330.651405 303.304271 
L 334.49464 303.30279 
L 338.337876 303.301309 
L 342.181112 303.299828 
L 346.024348 303.298347 
L 349.867584 303.296866 
L 353.71082 303.295385 
L 357.554056 303.293904 
L 361.397291 303.292423 
L 365.240527 303.290942 
L 369.083763 303.289461 
L 372.926999 303.28798 
L 376.770235 303.286499 
L 380.613471 303.285018 
L 384.456706 303.283538 
L 388.299942 303.282057 
L 392.143178 303.280576 
L 395.986414 303.279095 
L 399.82965 303.277614 
L 403.672886 303.276133 
L 407.516121 303.274652 
L 411.359357 303.273171 
L 415.202593 303.27169 
L 419.045829 303.270209 
L 422.889065 303.268728 
L 426.732301 303.267247 
L 430.575537 303.265766 
L 434.418772 303.264285 
L 438.262008 303.262804 
L 442.105244 303.261323 
L 445.94848 303.259842 
L 449.791716 303.258361 
L 453.634952 303.25688 
L 457.478187 303.255399 
L 461.321423 303.253918 
L 465.164659 303.252437 
L 469.007895 303.250956 
L 472.851131 303.249475 
L 476.694367 303.247994 
L 480.537603 303.246513 
L 484.380838 303.245033 
L 488.224074 303.243552 
L 492.06731 303.242071 
L 495.910546 303.24059 
L 499.753782 303.239109 
L 503.597018 303.237628 
L 507.440253 303.236147 
L 511.283489 303.234666 
L 515.126725 303.233185 
L 518.969961 303.231704 
L 522.813197 303.230223 
L 526.656433 303.228742 
L 530.499668 303.227261 
L 534.342904 303.22578 
L 538.18614 303.224299 
L 542.029376 303.222818 
L 545.872612 303.221337 
L 549.715848 303.219856 
L 553.559084 303.218375 
L 557.402319 303.216894 
L 561.245555 303.215413 
L 565.088791 303.213932 
L 568.932027 303.212451 
L 572.775263 303.21097 
L 576.618499 303.209489 
L 580.461734 303.208008 
L 584.30497 303.206528 
L 588.148206 303.205047 
L 591.991442 303.203566 
L 595.834678 303.202085 
L 599.677914 303.200604 
L 603.521149 303.199123 
L 607.364385 303.197642 
L 611.207621 303.196161 
" clip-path="url(#pa5584be1e0)" style="fill: none; stroke-dasharray: 7.4,3.2; stroke-dashoffset: 0; stroke: #000000; stroke-width: 2"/>
   </g>
   <g id="patch_3">
    <path d="M 170 320.4 
L 170 43.2 
" style="fill: none; stroke: #000000; stroke-width: 0.8; stroke-linejoin: miter; stroke-linecap: square"/>
   </g>
   <g id="patch_4">
    <path d="M 1296 320.4 
L 1296 43.2 
" style="fill: none"/>
   </g>
   <g id="patch_5">
    <path d="M 180 320.4 
L 1296 320.4 
" style="fill: none"/>
   </g>
   <g id="patch_6">
    <path d="M 180 43.2 
L 1296 43.2 
" style="fill: none"/>
   </g>
   <g id="text_6">
    <!-- Ascending aorta -->
    <g transform="translate(244.819137 434.745)rotate(-20)scale(0.18 -0.18)">
     <defs>
      <path id="ArialMT-41" d="M -9 0 
L 1750 4581 
L 2403 4581 
L 4278 0 
L 3588 0 
L 3053 1388 
L 1138 1388 
L 634 0 
L -9 0 
z
M 1313 1881 
L 2866 1881 
L 2388 3150 
Q 2169 3728 2063 4100 
Q 1975 3659 1816 3225 
L 1313 1881 
z
" transform="scale(0.015625)"/>
      <path id="ArialMT-63" d="M 2588 1216 
L 3141 1144 
Q 3050 572 2676 248 
Q 2303 -75 1759 -75 
Q 1078 -75 664 370 
Q 250 816 250 1647 
Q 250 2184 428 2587 
Q 606 2991 970 3192 
Q 1334 3394 1763 3394 
Q 2303 3394 2647 3120 
Q 2991 2847 3088 2344 
L 2541 2259 
Q 2463 2594 2264 2762 
Q 2066 2931 1784 2931 
Q 1359 2931 1093 2626 
Q 828 2322 828 1663 
Q 828 994 1084 691 
Q 1341 388 1753 388 
Q 2084 388 2306 591 
Q 2528 794 2588 1216 
z
" transform="scale(0.015625)"/>
      <path id="ArialMT-6e" d="M 422 0 
L 422 3319 
L 928 3319 
L 928 2847 
Q 1294 3394 1984 3394 
Q 2284 3394 2536 3286 
Q 2788 3178 2913 3003 
Q 3038 2828 3088 2588 
Q 3119 2431 3119 2041 
L 3119 0 
L 2556 0 
L 2556 2019 
Q 2556 2363 2490 2533 
Q 2425 2703 2258 2804 
Q 2091 2906 1866 2906 
Q 1506 2906 1245 2678 
Q 984 2450 984 1813 
L 984 0 
L 422 0 
z
" transform="scale(0.015625)"/>
      <path id="ArialMT-69" d="M 425 3934 
L 425 4581 
L 988 4581 
L 988 3934 
L 425 3934 
z
M 425 0 
L 425 3319 
L 988 3319 
L 988 0 
L 425 0 
z
" transform="scale(0.015625)"/>
      <path id="ArialMT-61" d="M 2588 409 
Q 2275 144 1986 34 
Q 1697 -75 1366 -75 
Q 819 -75 525 192 
Q 231 459 231 875 
Q 231 1119 342 1320 
Q 453 1522 633 1644 
Q 813 1766 1038 1828 
Q 1203 1872 1538 1913 
Q 2219 1994 2541 2106 
Q 2544 2222 2544 2253 
Q 2544 2597 2384 2738 
Q 2169 2928 1744 2928 
Q 1347 2928 1158 2789 
Q 969 2650 878 2297 
L 328 2372 
Q 403 2725 575 2942 
Q 747 3159 1072 3276 
Q 1397 3394 1825 3394 
Q 2250 3394 2515 3294 
Q 2781 3194 2906 3042 
Q 3031 2891 3081 2659 
Q 3109 2516 3109 2141 
L 3109 1391 
Q 3109 606 3145 398 
Q 3181 191 3288 0 
L 2700 0 
Q 2613 175 2588 409 
z
M 2541 1666 
Q 2234 1541 1622 1453 
Q 1275 1403 1131 1340 
Q 988 1278 909 1158 
Q 831 1038 831 891 
Q 831 666 1001 516 
Q 1172 366 1500 366 
Q 1825 366 2078 508 
Q 2331 650 2450 897 
Q 2541 1088 2541 1459 
L 2541 1666 
z
" transform="scale(0.015625)"/>
      <path id="ArialMT-74" d="M 1650 503 
L 1731 6 
Q 1494 -44 1306 -44 
Q 1000 -44 831 53 
Q 663 150 594 308 
Q 525 466 525 972 
L 525 2881 
L 113 2881 
L 113 3319 
L 525 3319 
L 525 4141 
L 1084 4478 
L 1084 3319 
L 1650 3319 
L 1650 2881 
L 1084 2881 
L 1084 941 
Q 1084 700 1114 631 
Q 1144 563 1211 522 
Q 1278 481 1403 481 
Q 1497 481 1650 503 
z
" transform="scale(0.015625)"/>
     </defs>
     <use xlink:href="#ArialMT-41"/>
     <use xlink:href="#ArialMT-73" x="66.699219"/>
     <use xlink:href="#ArialMT-63" x="116.699219"/>
     <use xlink:href="#ArialMT-65" x="166.699219"/>
     <use xlink:href="#ArialMT-6e" x="222.314453"/>
     <use xlink:href="#ArialMT-64" x="277.929688"/>
     <use xlink:href="#ArialMT-69" x="333.544922"/>
     <use xlink:href="#ArialMT-6e" x="355.761719"/>
     <use xlink:href="#ArialMT-67" x="411.376953"/>
     <use xlink:href="#ArialMT-20" x="466.992188"/>
     <use xlink:href="#ArialMT-61" x="494.775391"/>
     <use xlink:href="#ArialMT-6f" x="550.390625"/>
     <use xlink:href="#ArialMT-72" x="606.005859"/>
     <use xlink:href="#ArialMT-74" x="639.306641"/>
     <use xlink:href="#ArialMT-61" x="667.089844"/>
    </g>
   </g>
   <g id="text_7">
    <!-- 54.93 -->
    <g transform="translate(250.94381 320.63421)scale(0.12 -0.12)">
     <defs>
      <path id="ArialMT-35" d="M 266 1200 
L 856 1250 
Q 922 819 1161 601 
Q 1400 384 1738 384 
Q 2144 384 2425 690 
Q 2706 997 2706 1503 
Q 2706 1984 2436 2262 
Q 2166 2541 1728 2541 
Q 1456 2541 1237 2417 
Q 1019 2294 894 2097 
L 366 2166 
L 809 4519 
L 3088 4519 
L 3088 3981 
L 1259 3981 
L 1013 2750 
Q 1425 3038 1878 3038 
Q 2478 3038 2890 2622 
Q 3303 2206 3303 1553 
Q 3303 931 2941 478 
Q 2500 -78 1738 -78 
Q 1113 -78 717 272 
Q 322 622 266 1200 
z
" transform="scale(0.015625)"/>
      <path id="ArialMT-34" d="M 2069 0 
L 2069 1097 
L 81 1097 
L 81 1613 
L 2172 4581 
L 2631 4581 
L 2631 1613 
L 3250 1613 
L 3250 1097 
L 2631 1097 
L 2631 0 
L 2069 0 
z
M 2069 1613 
L 2069 3678 
L 634 1613 
L 2069 1613 
z
" transform="scale(0.015625)"/>
      <path id="ArialMT-2e" d="M 581 0 
L 581 641 
L 1222 641 
L 1222 0 
L 581 0 
z
" transform="scale(0.015625)"/>
      <path id="ArialMT-39" d="M 350 1059 
L 891 1109 
Q 959 728 1153 556 
Q 1347 384 1650 384 
Q 1909 384 2104 503 
Q 2300 622 2425 820 
Q 2550 1019 2634 1356 
Q 2719 1694 2719 2044 
Q 2719 2081 2716 2156 
Q 2547 1888 2255 1720 
Q 1963 1553 1622 1553 
Q 1053 1553 659 1965 
Q 266 2378 266 3053 
Q 266 3750 677 4175 
Q 1088 4600 1706 4600 
Q 2153 4600 2523 4359 
Q 2894 4119 3086 3673 
Q 3278 3228 3278 2384 
Q 3278 1506 3087 986 
Q 2897 466 2520 194 
Q 2144 -78 1638 -78 
Q 1100 -78 759 220 
Q 419 519 350 1059 
z
M 2653 3081 
Q 2653 3566 2395 3850 
Q 2138 4134 1775 4134 
Q 1400 4134 1122 3828 
Q 844 3522 844 3034 
Q 844 2597 1108 2323 
Q 1372 2050 1759 2050 
Q 2150 2050 2401 2323 
Q 2653 2597 2653 3081 
z
" transform="scale(0.015625)"/>
      <path id="ArialMT-33" d="M 269 1209 
L 831 1284 
Q 928 806 1161 595 
Q 1394 384 1728 384 
Q 2125 384 2398 659 
Q 2672 934 2672 1341 
Q 2672 1728 2419 1979 
Q 2166 2231 1775 2231 
Q 1616 2231 1378 2169 
L 1441 2663 
Q 1497 2656 1531 2656 
Q 1891 2656 2178 2843 
Q 2466 3031 2466 3422 
Q 2466 3731 2256 3934 
Q 2047 4138 1716 4138 
Q 1388 4138 1169 3931 
Q 950 3725 888 3313 
L 325 3413 
Q 428 3978 793 4289 
Q 1159 4600 1703 4600 
Q 2078 4600 2393 4439 
Q 2709 4278 2876 4000 
Q 3044 3722 3044 3409 
Q 3044 3113 2884 2869 
Q 2725 2625 2413 2481 
Q 2819 2388 3044 2092 
Q 3269 1797 3269 1353 
Q 3269 753 2831 336 
Q 2394 -81 1725 -81 
Q 1122 -81 723 278 
Q 325 638 269 1209 
z
" transform="scale(0.015625)"/>
     </defs>
     <use xlink:href="#ArialMT-35"/>
     <use xlink:href="#ArialMT-34" x="55.615234"/>
     <use xlink:href="#ArialMT-2e" x="111.230469"/>
     <use xlink:href="#ArialMT-39" x="139.013672"/>
     <use xlink:href="#ArialMT-33" x="194.628906"/>
    </g>
   </g>
   <g id="text_8">
    <!-- 56.15 -->
    <g transform="translate(231.60878 281.75195)scale(0.12 -0.12)">
     <use xlink:href="#ArialMT-35"/>
     <use xlink:href="#ArialMT-36" x="55.615234"/>
     <use xlink:href="#ArialMT-2e" x="111.230469"/>
     <use xlink:href="#ArialMT-31" x="139.013672"/>
     <use xlink:href="#ArialMT-35" x="194.628906"/>
    </g>
   </g>
   <g id="text_9">
    <!-- 48.95 -->
    <g transform="translate(219.360968 341.372285)scale(0.12 -0.12)">
     <use xlink:href="#ArialMT-34"/>
     <use xlink:href="#ArialMT-38" x="55.615234"/>
     <use xlink:href="#ArialMT-2e" x="111.230469"/>
     <use xlink:href="#ArialMT-39" x="139.013672"/>
     <use xlink:href="#ArialMT-35" x="194.628906"/>
    </g>
   </g>
   <g id="text_10">
    <!-- Thoracic aorta B -->
    <g transform="translate(322.324394 434.745)rotate(-20)scale(0.18 -0.18)">
     <defs>
      <path id="ArialMT-54" d="M 1659 0 
L 1659 4041 
L 150 4041 
L 150 4581 
L 3781 4581 
L 3781 4041 
L 2266 4041 
L 2266 0 
L 1659 0 
z
" transform="scale(0.015625)"/>
      <path id="ArialMT-68" d="M 422 0 
L 422 4581 
L 984 4581 
L 984 2938 
Q 1378 3394 1978 3394 
Q 2347 3394 2619 3248 
Q 2891 3103 3008 2847 
Q 3125 2591 3125 2103 
L 3125 0 
L 2563 0 
L 2563 2103 
Q 2563 2525 2380 2717 
Q 2197 2909 1863 2909 
Q 1613 2909 1392 2779 
Q 1172 2650 1078 2428 
Q 984 2206 984 1816 
L 984 0 
L 422 0 
z
" transform="scale(0.015625)"/>
     </defs>
     <use xlink:href="#ArialMT-54"/>
     <use xlink:href="#ArialMT-68" x="61.083984"/>
     <use xlink:href="#ArialMT-6f" x="116.699219"/>
     <use xlink:href="#ArialMT-72" x="172.314453"/>
     <use xlink:href="#ArialMT-61" x="205.615234"/>
     <use xlink:href="#ArialMT-63" x="261.230469"/>
     <use xlink:href="#ArialMT-69" x="311.230469"/>
     <use xlink:href="#ArialMT-63" x="333.447266"/>
     <use xlink:href="#ArialMT-20" x="383.447266"/>
     <use xlink:href="#ArialMT-61" x="411.230469"/>
     <use xlink:href="#ArialMT-6f" x="466.845703"/>
     <use xlink:href="#ArialMT-72" x="522.460938"/>
     <use xlink:href="#ArialMT-74" x="555.761719"/>
     <use xlink:href="#ArialMT-61" x="583.544922"/>
     <use xlink:href="#ArialMT-20" x="639.160156"/>
     <use xlink:href="#ArialMT-42" x="666.943359"/>
    </g>
   </g>
   <g id="text_11">
    <!-- 54.94 -->
    <g transform="translate(328.449066 320.624487)scale(0.12 -0.12)">
     <use xlink:href="#ArialMT-35"/>
     <use xlink:href="#ArialMT-34" x="55.615234"/>
     <use xlink:href="#ArialMT-2e" x="111.230469"/>
     <use xlink:href="#ArialMT-39" x="139.013672"/>
     <use xlink:href="#ArialMT-34" x="194.628906"/>
    </g>
   </g>
   <g id="text_12">
    <!-- 56.67 -->
    <g transform="translate(306.430527 279.978384)scale(0.12 -0.12)">
     <defs>
      <path id="ArialMT-37" d="M 303 3981 
L 303 4522 
L 3269 4522 
L 3269 4084 
Q 2831 3619 2401 2847 
Q 1972 2075 1738 1259 
Q 1569 684 1522 0 
L 944 0 
Q 953 541 1156 1306 
Q 1359 2072 1739 2783 
Q 2119 3494 2547 3981 
L 303 3981 
z
" transform="scale(0.015625)"/>
     </defs>
     <use xlink:href="#ArialMT-35"/>
     <use xlink:href="#ArialMT-36" x="55.615234"/>
     <use xlink:href="#ArialMT-2e" x="111.230469"/>
     <use xlink:href="#ArialMT-36" x="139.013672"/>
     <use xlink:href="#ArialMT-37" x="194.628906"/>
    </g>
   </g>
   <g id="text_13">
    <!-- 47.59 -->
    <g transform="translate(297.829535 346.062195)scale(0.12 -0.12)">
     <use xlink:href="#ArialMT-34"/>
     <use xlink:href="#ArialMT-37" x="55.615234"/>
     <use xlink:href="#ArialMT-2e" x="111.230469"/>
     <use xlink:href="#ArialMT-35" x="139.013672"/>
     <use xlink:href="#ArialMT-39" x="194.628906"/>
    </g>
   </g>
   <g id="text_14">
    <!-- Abdominal aorta B -->
    <g transform="translate(399.82965 434.745)rotate(-20)scale(0.18 -0.18)">
     <defs>
      <path id="ArialMT-62" d="M 941 0 
L 419 0 
L 419 4581 
L 981 4581 
L 981 2947 
Q 1338 3394 1891 3394 
Q 2197 3394 2470 3270 
Q 2744 3147 2920 2923 
Q 3097 2700 3197 2384 
Q 3297 2069 3297 1709 
Q 3297 856 2875 390 
Q 2453 -75 1863 -75 
Q 1275 -75 941 416 
L 941 0 
z
M 934 1684 
Q 934 1088 1097 822 
Q 1363 388 1816 388 
Q 2184 388 2453 708 
Q 2722 1028 2722 1663 
Q 2722 2313 2464 2622 
Q 2206 2931 1841 2931 
Q 1472 2931 1203 2611 
Q 934 2291 934 1684 
z
" transform="scale(0.015625)"/>
     </defs>
     <use xlink:href="#ArialMT-41"/>
     <use xlink:href="#ArialMT-62" x="66.699219"/>
     <use xlink:href="#ArialMT-64" x="122.314453"/>
     <use xlink:href="#ArialMT-6f" x="177.929688"/>
     <use xlink:href="#ArialMT-6d" x="233.544922"/>
     <use xlink:href="#ArialMT-69" x="316.845703"/>
     <use xlink:href="#ArialMT-6e" x="339.0625"/>
     <use xlink:href="#ArialMT-61" x="394.677734"/>
     <use xlink:href="#ArialMT-6c" x="450.292969"/>
     <use xlink:href="#ArialMT-20" x="472.509766"/>
     <use xlink:href="#ArialMT-61" x="500.292969"/>
     <use xlink:href="#ArialMT-6f" x="555.908203"/>
     <use xlink:href="#ArialMT-72" x="611.523438"/>
     <use xlink:href="#ArialMT-74" x="644.824219"/>
     <use xlink:href="#ArialMT-61" x="672.607422"/>
     <use xlink:href="#ArialMT-20" x="728.222656"/>
     <use xlink:href="#ArialMT-42" x="756.005859"/>
    </g>
   </g>
   <g id="text_15">
    <!-- 54.94 -->
    <g transform="translate(405.954322 320.615366)scale(0.12 -0.12)">
     <use xlink:href="#ArialMT-35"/>
     <use xlink:href="#ArialMT-34" x="55.615234"/>
     <use xlink:href="#ArialMT-2e" x="111.230469"/>
     <use xlink:href="#ArialMT-39" x="139.013672"/>
     <use xlink:href="#ArialMT-34" x="194.628906"/>
    </g>
   </g>
   <g id="text_16">
    <!-- 57.55 -->
    <g transform="translate(382.69724 276.898894)scale(0.12 -0.12)">
     <use xlink:href="#ArialMT-35"/>
     <use xlink:href="#ArialMT-37" x="55.615234"/>
     <use xlink:href="#ArialMT-2e" x="111.230469"/>
     <use xlink:href="#ArialMT-35" x="139.013672"/>
     <use xlink:href="#ArialMT-35" x="194.628906"/>
    </g>
   </g>
   <g id="text_17">
    <!-- 46.75 -->
    <g transform="translate(375.816447 348.994614)scale(0.12 -0.12)">
     <use xlink:href="#ArialMT-34"/>
     <use xlink:href="#ArialMT-36" x="55.615234"/>
     <use xlink:href="#ArialMT-2e" x="111.230469"/>
     <use xlink:href="#ArialMT-37" x="139.013672"/>
     <use xlink:href="#ArialMT-35" x="194.628906"/>
    </g>
   </g>
   <g id="text_18">
    <!-- Abdominal aorta D -->
    <g transform="translate(477.334906 434.745)rotate(-20)scale(0.18 -0.18)">
     <defs>
      <path id="ArialMT-44" d="M 494 0 
L 494 4581 
L 2072 4581 
Q 2606 4581 2888 4516 
Q 3281 4425 3559 4188 
Q 3922 3881 4101 3404 
Q 4281 2928 4281 2316 
Q 4281 1794 4159 1391 
Q 4038 988 3847 723 
Q 3656 459 3429 307 
Q 3203 156 2883 78 
Q 2563 0 2147 0 
L 494 0 
z
M 1100 541 
L 2078 541 
Q 2531 541 2789 625 
Q 3047 709 3200 863 
Q 3416 1078 3536 1442 
Q 3656 1806 3656 2325 
Q 3656 3044 3420 3430 
Q 3184 3816 2847 3947 
Q 2603 4041 2063 4041 
L 1100 4041 
L 1100 541 
z
" transform="scale(0.015625)"/>
     </defs>
     <use xlink:href="#ArialMT-41"/>
     <use xlink:href="#ArialMT-62" x="66.699219"/>
     <use xlink:href="#ArialMT-64" x="122.314453"/>
     <use xlink:href="#ArialMT-6f" x="177.929688"/>
     <use xlink:href="#ArialMT-6d" x="233.544922"/>
     <use xlink:href="#ArialMT-69" x="316.845703"/>
     <use xlink:href="#ArialMT-6e" x="339.0625"/>
     <use xlink:href="#ArialMT-61" x="394.677734"/>
     <use xlink:href="#ArialMT-6c" x="450.292969"/>
     <use xlink:href="#ArialMT-20" x="472.509766"/>
     <use xlink:href="#ArialMT-61" x="500.292969"/>
     <use xlink:href="#ArialMT-6f" x="555.908203"/>
     <use xlink:href="#ArialMT-72" x="611.523438"/>
     <use xlink:href="#ArialMT-74" x="644.824219"/>
     <use xlink:href="#ArialMT-61" x="672.607422"/>
     <use xlink:href="#ArialMT-20" x="728.222656"/>
     <use xlink:href="#ArialMT-44" x="756.005859"/>
    </g>
   </g>
   <g id="text_19">
    <!-- 54.94 -->
    <g transform="translate(483.459578 320.602311)scale(0.12 -0.12)">
     <use xlink:href="#ArialMT-35"/>
     <use xlink:href="#ArialMT-34" x="55.615234"/>
     <use xlink:href="#ArialMT-2e" x="111.230469"/>
     <use xlink:href="#ArialMT-39" x="139.013672"/>
     <use xlink:href="#ArialMT-34" x="194.628906"/>
    </g>
   </g>
   <g id="text_20">
    <!-- 59.55 -->
    <g transform="translate(459.239186 269.994014)scale(0.12 -0.12)">
     <use xlink:href="#ArialMT-35"/>
     <use xlink:href="#ArialMT-39" x="55.615234"/>
     <use xlink:href="#ArialMT-2e" x="111.230469"/>
     <use xlink:href="#ArialMT-35" x="139.013672"/>
     <use xlink:href="#ArialMT-35" x="194.628906"/>
    </g>
   </g>
   <g id="text_21">
    <!-- 48.22 -->
    <g transform="translate(450.638194 343.882492)scale(0.12 -0.12)">
     <use xlink:href="#ArialMT-34"/>
     <use xlink:href="#ArialMT-38" x="55.615234"/>
     <use xlink:href="#ArialMT-2e" x="111.230469"/>
     <use xlink:href="#ArialMT-32" x="139.013672"/>
     <use xlink:href="#ArialMT-32" x="194.628906"/>
    </g>
   </g>
   <g id="text_22">
    <!-- Right Femoral A -->
    <g transform="translate(554.840162 434.745)rotate(-20)scale(0.18 -0.18)">
     <defs>
      <path id="ArialMT-52" d="M 503 0 
L 503 4581 
L 2534 4581 
Q 3147 4581 3465 4457 
Q 3784 4334 3975 4021 
Q 4166 3709 4166 3331 
Q 4166 2844 3850 2509 
Q 3534 2175 2875 2084 
Q 3116 1969 3241 1856 
Q 3506 1613 3744 1247 
L 4541 0 
L 3778 0 
L 3172 953 
Q 2906 1366 2734 1584 
Q 2563 1803 2427 1890 
Q 2291 1978 2150 2013 
Q 2047 2034 1813 2034 
L 1109 2034 
L 1109 0 
L 503 0 
z
M 1109 2559 
L 2413 2559 
Q 2828 2559 3062 2645 
Q 3297 2731 3419 2920 
Q 3541 3109 3541 3331 
Q 3541 3656 3305 3865 
Q 3069 4075 2559 4075 
L 1109 4075 
L 1109 2559 
z
" transform="scale(0.015625)"/>
      <path id="ArialMT-46" d="M 525 0 
L 525 4581 
L 3616 4581 
L 3616 4041 
L 1131 4041 
L 1131 2622 
L 3281 2622 
L 3281 2081 
L 1131 2081 
L 1131 0 
L 525 0 
z
" transform="scale(0.015625)"/>
     </defs>
     <use xlink:href="#ArialMT-52"/>
     <use xlink:href="#ArialMT-69" x="72.216797"/>
     <use xlink:href="#ArialMT-67" x="94.433594"/>
     <use xlink:href="#ArialMT-68" x="150.048828"/>
     <use xlink:href="#ArialMT-74" x="205.664062"/>
     <use xlink:href="#ArialMT-20" x="233.447266"/>
     <use xlink:href="#ArialMT-46" x="261.230469"/>
     <use xlink:href="#ArialMT-65" x="322.314453"/>
     <use xlink:href="#ArialMT-6d" x="377.929688"/>
     <use xlink:href="#ArialMT-6f" x="461.230469"/>
     <use xlink:href="#ArialMT-72" x="516.845703"/>
     <use xlink:href="#ArialMT-61" x="550.146484"/>
     <use xlink:href="#ArialMT-6c" x="605.761719"/>
     <use xlink:href="#ArialMT-20" x="627.978516"/>
     <use xlink:href="#ArialMT-41" x="650.261719"/>
    </g>
   </g>
   <g id="text_23">
    <!-- 54.97 -->
    <g transform="translate(560.964834 320.495967)scale(0.12 -0.12)">
     <use xlink:href="#ArialMT-35"/>
     <use xlink:href="#ArialMT-34" x="55.615234"/>
     <use xlink:href="#ArialMT-2e" x="111.230469"/>
     <use xlink:href="#ArialMT-39" x="139.013672"/>
     <use xlink:href="#ArialMT-37" x="194.628906"/>
    </g>
   </g>
   <g id="text_24">
    <!-- 63.80 -->
    <g transform="translate(533.716893 255.267881)scale(0.12 -0.12)">
     <use xlink:href="#ArialMT-36"/>
     <use xlink:href="#ArialMT-33" x="55.615234"/>
     <use xlink:href="#ArialMT-2e" x="111.230469"/>
     <use xlink:href="#ArialMT-38" x="139.013672"/>
     <use xlink:href="#ArialMT-30" x="194.628906"/>
    </g>
   </g>
   <g id="text_25">
    <!-- 42.46 -->
    <g transform="translate(526.629676 363.839117)scale(0.12 -0.12)">
     <use xlink:href="#ArialMT-34"/>
     <use xlink:href="#ArialMT-32" x="55.615234"/>
     <use xlink:href="#ArialMT-2e" x="111.230469"/>
     <use xlink:href="#ArialMT-34" x="139.013672"/>
     <use xlink:href="#ArialMT-36" x="194.628906"/>
    </g>
   </g>
  </g>
 </g>
 <defs>
  <clipPath id="pa5584be1e0">
   <rect x="180" y="43.2" width="1116" height="277.2"/>
  </clipPath>
 </defs>
</svg>
